<svg width="728" height="776" viewBox="0 0 728 776" fill="none" xmlns="http://www.w3.org/2000/svg">
<path d="M632.124 139.537C645.125 119.495 649.458 95.6621 644.042 71.8286C633.208 23.0782 585 -8.33865 535.708 1.95309C512.417 6.82812 492.375 20.9115 479.375 39.87C442 27.4116 403.541 20.9115 364 20.9115H363.458C163.583 21.4532 0.541666 184.496 0 384.914C0 478.081 34.6666 565.831 98.0416 633.541C83.9583 654.125 78.5417 679.583 83.9583 704.499C93.1667 747.291 131.083 776 172.792 776C179.292 776 185.792 775.458 191.75 773.834C216.667 768.416 238.333 752.708 250.792 731.042C287.084 742.958 325 748.916 363.458 748.916H364C460.958 748.916 552.5 711 620.75 642.749C689.541 573.957 727.458 482.957 728 385.456C728 294.455 694.417 207.246 632.124 139.537ZM542.208 29.0366C576.875 21.4532 610.458 43.6618 618.042 77.7869C622.375 97.2871 617.5 116.787 604.5 131.954C595.291 142.787 582.833 150.371 569.292 153.62C552.5 157.413 535.708 154.162 521.083 144.955C507 135.746 496.709 121.662 493.459 104.87C490.209 90.787 492.375 76.162 498.875 63.1618C507 45.2867 523.25 32.8283 542.208 29.0366ZM185.792 747.833C151.125 755.416 117.542 733.208 109.958 699.083C105.625 679.041 111.583 657.374 125.667 642.208C134.875 632.458 146.25 625.957 158.708 623.249C193.375 615.665 226.959 637.874 234.541 671.999C237.25 684.457 236.167 697.458 231.291 709.916C223.709 729.417 206.375 743.5 185.792 747.833ZM601.791 624.332C538.416 687.708 453.916 722.375 364 722.375H363.458C328.25 722.375 294.125 716.957 261.084 706.125C261.084 705.582 261.084 705.582 261.084 705.041C261.625 702.333 262.166 699.625 262.708 696.917C262.708 696.375 262.708 695.292 263.25 694.749C263.792 692.041 263.792 688.791 263.792 686.083V685.541C263.792 682.832 263.792 680.124 263.25 677.416C263.25 676.875 263.25 675.791 263.25 675.25C262.708 671.999 262.708 669.291 261.625 666.583C250.792 617.832 202.583 586.415 153.292 596.707C150.041 597.248 147.333 598.333 144.625 599.416C144.083 599.416 143 599.957 142.459 599.957C139.751 601.041 137.041 602.124 134.333 603.207C134.333 603.207 134.333 603.207 133.791 603.207C131.083 604.29 128.375 605.915 125.667 607.54C125.125 608.082 124.583 608.082 123.5 608.623C121.333 610.249 118.625 611.874 116.458 613.499C116.458 613.499 115.917 613.499 115.917 614.041C58.4999 551.207 27.0834 470.498 27.0834 384.914C27.625 199.122 178.75 48.5367 364.542 48.5367C400.291 48.5367 434.958 53.9534 468.542 65.3286C464.208 79.9536 463.666 95.6621 466.916 110.829C471.792 134.663 485.875 154.704 506.459 168.246C527.042 181.246 551.416 185.579 574.708 180.704C589.875 177.455 603.417 170.954 614.792 161.204C670.583 223.496 701.458 303.122 700.917 387.081C700.917 475.914 665.708 560.415 601.791 624.332Z" fill="url(#paint0_linear_4_7)"/>
<defs>
<linearGradient id="paint0_linear_4_7" x1="-7.49999" y1="7.49999" x2="921.5" y2="892.5" gradientUnits="userSpaceOnUse">
<stop stop-color="#EF465C"/>
<stop offset="1" stop-color="#E8BD4D" stop-opacity="0"/>
</linearGradient>
</defs>
</svg>
