<svg width="728" height="776" viewBox="0 0 728 776" fill="none" xmlns="http://www.w3.org/2000/svg">
    <defs>
        <linearGradient id="paint0_linear_4_8" x1="186.604" y1="328.042" x2="186.604" y2="492" gradientUnits="userSpaceOnUse">
            <stop stop-color="#EF465C" />
            <stop offset="1" stop-color="#EFC046" stop-opacity="0" />
        </linearGradient>
        <linearGradient id="paint1_linear_4_8" x1="338" y1="328.042" x2="338" y2="523.5" gradientUnits="userSpaceOnUse">
            <stop stop-color="#EF465C" />
            <stop offset="1" stop-color="#EFC046" stop-opacity="0" />
        </linearGradient>
        <linearGradient id="paint2_linear_4_8" x1="456.895" y1="299.874" x2="456.895" y2="553.5" gradientUnits="userSpaceOnUse">
            <stop stop-color="#EF465C" />
            <stop offset="1" stop-color="#EFC046" stop-opacity="0" />
            `
        </linearGradient>
        <linearGradient id="paint3_linear_4_8" x1="575.249" y1="329.665" x2="575" y2="535.5" gradientUnits="userSpaceOnUse">
            <stop stop-color="#EF465C" />
            <stop offset="1" stop-color="#EFC046" stop-opacity="0" />
        </linearGradient>
        <linearGradient id="paint4_linear_4_8" x1="-7.49999" y1="7.49999" x2="921.5" y2="892.5" gradientUnits="userSpaceOnUse">
            <stop stop-color="#EF465C" />
            <stop offset="1" stop-color="#E8BD4D" stop-opacity="0" />
        </linearGradient>
        <clipPath id="clip0_4_8">
            <rect width="728" height="776" fill="white" />
        </clipPath>
    </defs>
    <g clip-path="url(#clip0_4_8)">
        <path d="M229.125 328.042C213.959 328.042 200.958 336.167 193.916 347.542C186.875 335.083 173.875 328.042 158.167 328.042C145.709 328.042 134.333 333.458 128.375 342.125V329.666H102.375V431.5H128.375V375.708C128.375 359.459 137.583 350.792 151.667 350.792C165.208 350.792 174.416 359.459 174.416 375.708V432.042H200.417V375.708C200.417 359.459 209.625 350.792 223.167 350.792C236.709 350.792 245.917 359.459 245.917 375.708V432.042H270.834V371.917C270.834 343.75 253.5 328.042 229.125 328.042Z" fill="url(#paint0_linear_4_8)" />
        <path d="M338.542 328.042C308.209 328.042 287.084 348.625 287.084 380.584C287.084 412.542 308.751 433.126 338.542 433.126C364 433.126 380.792 417.958 386.209 399.541H358.584C355.334 406.583 349.376 412.001 338 412.001C325 412.001 314.709 403.334 313.625 388.166H388.375C388.917 384.917 388.917 381.667 388.917 378.416C388.917 348.084 368.334 328.042 338.542 328.042ZM314.167 371.375C316.333 357.291 326.083 349.708 338.542 349.708C351.542 349.708 362.376 358.375 362.916 371.375H314.167Z" fill="url(#paint1_linear_4_8)" />
        <path d="M501.041 410.916C499.416 409.833 497.249 408.208 494.541 406.042C497.791 402.792 500.499 399.541 502.666 395.208C504.833 391.417 506.457 387.083 508.083 383.292C509.167 379.499 510.249 376.25 510.791 373C511.333 369.75 511.875 368.124 511.875 366.499H490.208C490.208 367.583 490.208 369.207 489.666 371.375C489.124 373.541 488.583 375.166 488.041 377.333C487.5 379.499 486.416 381.667 485.333 383.292C484.25 385.458 483.166 387.083 482.083 388.166L464.208 361.083C468 359.458 471.25 357.832 474.5 355.666C477.75 354.041 480.458 351.333 482.624 349.167C484.791 346.999 486.958 343.749 488.041 340.5C489.124 337.25 490.208 333.458 490.208 329.125C490.208 324.791 489.666 320.999 488.041 317.208C486.416 313.416 484.25 310.708 481.541 307.999C478.833 305.291 475.582 303.124 471.792 302.041C468 300.416 463.666 299.874 458.791 299.874C453.916 299.874 449.583 300.416 445.249 302.041C440.916 303.665 437.666 305.833 434.417 308.541C431.167 311.249 428.999 315.04 426.833 318.833C425.207 322.624 424.125 326.958 424.125 331.833C424.125 336.167 424.667 339.958 426.291 343.208C427.917 346.999 429.541 349.708 430.625 351.875C426.833 353.5 423.041 356.208 419.791 358.917C416.541 361.625 413.291 364.875 410.583 368.124C407.875 371.375 405.708 375.166 404.083 379.499C402.458 383.833 401.374 388.166 401.374 392.5C401.374 399 402.458 404.417 404.625 409.291C406.791 414.167 410.041 418.5 413.833 421.75C417.625 425 422.499 427.708 427.917 429.875C433.333 431.5 438.749 432.583 445.249 432.583C451.75 432.583 458.25 431.5 463.666 429.333C469.082 427.167 474.5 425 478.833 421.75C482.083 425 485.874 427.167 489.124 428.25C492.375 429.333 496.708 429.875 501.041 429.875C505.375 429.875 509.167 429.333 512.417 428.792V409.833C510.791 410.375 508.625 410.375 506.457 410.375C504.833 412.542 502.666 412.001 501.041 410.916ZM450.124 322.083C451.75 319.916 454.458 318.833 458.25 318.833C461.5 318.833 464.208 319.916 465.832 322.083C468 324.249 468.542 326.958 468.542 330.208C468.542 334.541 466.916 337.792 463.666 339.958C460.416 342.124 457.166 343.749 453.374 344.291C451.75 342.124 450.124 339.958 449.041 337.792C447.958 335.624 447.416 332.916 447.416 329.666C447.958 326.958 448.5 324.249 450.124 322.083ZM457.166 411.458C453.916 413.084 450.124 413.625 446.333 413.625C443.625 413.625 440.916 413.084 438.208 412.542C435.499 411.458 433.333 410.375 431.167 408.75C428.999 407.125 427.375 404.958 426.291 402.25C425.207 399.541 424.667 396.833 424.667 393.042C424.667 387.625 426.291 383.292 429.541 379.499C432.791 375.708 437.125 373 441.999 371.375L465.292 406.042C463.666 407.667 460.416 409.833 457.166 411.458Z" fill="url(#paint2_linear_4_8)" />
        <path d="M597.999 329.665V385.999C597.999 402.248 589.333 411.457 575.25 411.457C561.708 411.457 552.5 402.791 552.5 385.999V329.665H526.499V389.79C526.499 417.957 543.833 433.124 567.666 433.124C580.124 433.124 591.499 427.708 597.999 419.041V432.041H623.999V329.665H597.999Z" fill="url(#paint3_linear_4_8)" />
        <path d="M632.124 139.537C645.125 119.495 649.458 95.6621 644.042 71.8286C633.208 23.0782 585 -8.33865 535.708 1.95309C512.417 6.82812 492.375 20.9115 479.375 39.87C442 27.4116 403.541 20.9115 364 20.9115H363.458C163.583 21.4532 0.541666 184.496 0 384.914C0 478.081 34.6666 565.831 98.0416 633.541C83.9583 654.125 78.5417 679.583 83.9583 704.499C93.1667 747.291 131.083 776 172.792 776C179.292 776 185.792 775.458 191.75 773.834C216.667 768.416 238.333 752.708 250.792 731.042C287.084 742.958 325 748.916 363.458 748.916H364C460.958 748.916 552.5 711 620.75 642.749C689.541 573.957 727.458 482.957 728 385.456C728 294.455 694.417 207.246 632.124 139.537ZM542.208 29.0366C576.875 21.4532 610.458 43.6618 618.042 77.7869C622.375 97.2871 617.5 116.787 604.5 131.954C595.291 142.787 582.833 150.371 569.292 153.62C552.5 157.413 535.708 154.162 521.083 144.955C507 135.746 496.709 121.662 493.459 104.87C490.209 90.787 492.375 76.162 498.875 63.1618C507 45.2867 523.25 32.8283 542.208 29.0366ZM185.792 747.833C151.125 755.416 117.542 733.208 109.958 699.083C105.625 679.041 111.583 657.374 125.667 642.208C134.875 632.458 146.25 625.957 158.708 623.249C193.375 615.665 226.959 637.874 234.541 671.999C237.25 684.457 236.167 697.458 231.291 709.916C223.709 729.417 206.375 743.5 185.792 747.833ZM601.791 624.332C538.416 687.708 453.916 722.375 364 722.375H363.458C328.25 722.375 294.125 716.957 261.084 706.125C261.084 705.582 261.084 705.582 261.084 705.041C261.625 702.333 262.166 699.625 262.708 696.917C262.708 696.375 262.708 695.292 263.25 694.749C263.792 692.041 263.792 688.791 263.792 686.083V685.541C263.792 682.832 263.792 680.124 263.25 677.416C263.25 676.875 263.25 675.791 263.25 675.25C262.708 671.999 262.708 669.291 261.625 666.583C250.792 617.832 202.583 586.415 153.292 596.707C150.041 597.248 147.333 598.333 144.625 599.416C144.083 599.416 143 599.957 142.459 599.957C139.751 601.041 137.041 602.124 134.333 603.207C134.333 603.207 134.333 603.207 133.791 603.207C131.083 604.29 128.375 605.915 125.667 607.54C125.125 608.082 124.583 608.082 123.5 608.623C121.333 610.249 118.625 611.874 116.458 613.499C116.458 613.499 115.917 613.499 115.917 614.041C58.4999 551.207 27.0834 470.498 27.0834 384.914C27.625 199.122 178.75 48.5367 364.542 48.5367C400.291 48.5367 434.958 53.9534 468.542 65.3286C464.208 79.9536 463.666 95.6621 466.916 110.829C471.792 134.663 485.875 154.704 506.459 168.246C527.042 181.246 551.416 185.579 574.708 180.704C589.875 177.455 603.417 170.954 614.792 161.204C670.583 223.496 701.458 303.122 700.917 387.081C700.917 475.914 665.708 560.415 601.791 624.332Z" fill="url(#paint4_linear_4_8)" />
    </g>
</svg>