<svg width="657" height="700" viewBox="0 0 657 700" fill="none" xmlns="http://www.w3.org/2000/svg">
<path d="M206.779 295.914C193.092 295.914 181.359 303.243 175.004 313.504C168.65 302.266 156.917 295.914 142.741 295.914C131.498 295.914 121.232 300.8 115.855 308.618V297.379H92.3906V389.24H115.855V338.912C115.855 324.254 124.165 316.436 136.875 316.436C149.096 316.436 157.406 324.254 157.406 338.912V389.729H180.871V338.912C180.871 324.254 189.181 316.436 201.402 316.436C213.623 316.436 221.933 324.254 221.933 338.912V389.729H244.42V335.492C244.42 310.084 228.777 295.914 206.779 295.914Z" fill="#EF465C"/>
<path d="M305.525 295.914C278.15 295.914 259.085 314.481 259.085 343.31C259.085 372.138 278.639 390.706 305.525 390.706C328.5 390.706 343.654 377.024 348.543 360.411H323.612C320.679 366.763 315.302 371.65 305.036 371.65C293.304 371.65 284.016 363.832 283.038 350.15H350.498C350.987 347.219 350.987 344.287 350.987 341.355C350.987 313.993 332.411 295.914 305.525 295.914ZM283.527 335.003C285.482 322.299 294.281 315.458 305.525 315.458C317.257 315.458 327.034 323.276 327.522 335.003H283.527Z" fill="#EF465C"/>
<path d="M452.176 370.672C450.709 369.695 448.754 368.229 446.31 366.275C449.243 363.343 451.687 360.411 453.642 356.502C455.598 353.082 457.064 349.173 458.531 345.753C459.509 342.332 460.486 339.401 460.975 336.469C461.464 333.537 461.953 332.071 461.953 330.605H442.399C442.399 331.583 442.399 333.048 441.91 335.003C441.421 336.957 440.933 338.423 440.444 340.378C439.955 342.332 438.977 344.287 438 345.753C437.022 347.707 436.044 349.173 435.067 350.15L418.935 325.719C422.357 324.253 425.29 322.787 428.223 320.833C431.156 319.367 433.6 316.924 435.555 314.97C437.511 313.015 439.466 310.083 440.444 307.152C441.421 304.22 442.399 300.8 442.399 296.891C442.399 292.982 441.91 289.561 440.444 286.141C438.977 282.721 437.022 280.278 434.578 277.834C432.134 275.391 429.2 273.437 425.779 272.46C422.357 270.994 418.446 270.505 414.046 270.505C409.647 270.505 405.736 270.994 401.825 272.46C397.915 273.925 394.982 275.88 392.049 278.323C389.116 280.766 387.16 284.186 385.205 287.607C383.738 291.027 382.761 294.936 382.761 299.334C382.761 303.243 383.25 306.663 384.716 309.595C386.183 313.015 387.649 315.458 388.627 317.413C385.205 318.879 381.783 321.322 378.85 323.765C375.917 326.208 372.984 329.14 370.54 332.071C368.096 335.003 366.14 338.423 364.674 342.332C363.207 346.241 362.229 350.15 362.229 354.059C362.229 359.923 363.207 364.809 365.163 369.206C367.118 373.604 370.051 377.513 373.473 380.445C376.895 383.376 381.294 385.819 386.183 387.774C391.071 389.24 395.959 390.217 401.825 390.217C407.692 390.217 413.558 389.24 418.446 387.285C423.334 385.331 428.223 383.376 432.134 380.445C435.067 383.376 438.488 385.331 441.421 386.308C444.355 387.285 448.265 387.774 452.176 387.774C456.087 387.774 459.509 387.285 462.442 386.797V369.695C460.975 370.184 459.02 370.184 457.064 370.184C455.598 372.138 453.642 371.65 452.176 370.672ZM406.225 290.539C407.692 288.584 410.136 287.607 413.558 287.607C416.491 287.607 418.935 288.584 420.401 290.539C422.357 292.493 422.846 294.936 422.846 297.868C422.846 301.777 421.379 304.709 418.446 306.663C415.513 308.617 412.58 310.083 409.158 310.572C407.692 308.617 406.225 306.663 405.247 304.709C404.27 302.754 403.781 300.311 403.781 297.379C404.27 294.936 404.759 292.493 406.225 290.539ZM412.58 371.161C409.647 372.627 406.225 373.115 402.803 373.115C400.359 373.115 397.915 372.627 395.471 372.138C393.026 371.161 391.071 370.184 389.116 368.718C387.16 367.252 385.694 365.297 384.716 362.854C383.738 360.411 383.25 357.968 383.25 354.548C383.25 349.662 384.716 345.753 387.649 342.332C390.582 338.912 394.493 336.469 398.892 335.003L419.913 366.275C418.446 367.741 415.513 369.695 412.58 371.161Z" fill="#EF465C"/>
<path d="M539.678 297.378V348.195C539.678 362.853 531.857 371.16 519.147 371.16C506.926 371.16 498.616 363.342 498.616 348.195V297.378H475.151V351.615C475.151 377.023 490.794 390.705 512.303 390.705C523.546 390.705 533.812 385.819 539.678 378.001V389.728H563.142V297.378H539.678Z" fill="#EF465C"/>
<path d="M570.475 125.871C582.208 107.792 586.118 86.2931 581.23 64.7938C571.453 20.818 527.946 -7.52198 483.462 1.76181C462.442 6.15939 444.355 18.8635 432.623 35.9652C398.893 24.727 364.185 18.8635 328.5 18.8635H328.011C147.629 19.3521 0.488839 166.427 0 347.216C0 431.259 31.2857 510.415 88.4799 571.493C75.7701 590.061 70.8817 613.026 75.7701 635.502C84.0804 674.103 118.299 700 155.94 700C161.806 700 167.672 699.511 173.049 698.046C195.536 693.159 215.089 678.989 226.333 659.445C259.085 670.194 293.304 675.569 328.011 675.569H328.5C416.002 675.569 498.616 641.366 560.21 579.799C622.292 517.745 656.511 435.657 657 347.705C657 265.617 626.692 186.949 570.475 125.871ZM489.328 26.1928C520.614 19.3521 550.922 39.3856 557.766 70.1686C561.676 87.759 557.277 105.349 545.545 119.031C537.234 128.803 525.991 135.644 513.77 138.575C498.616 141.996 483.462 139.064 470.263 130.758C457.554 122.451 448.266 109.747 445.333 94.5996C442.4 81.8955 444.355 68.7028 450.221 56.9759C457.554 40.8514 472.219 29.6132 489.328 26.1928ZM167.672 674.592C136.386 681.432 106.078 661.399 99.2344 630.616C95.3237 612.537 100.701 592.992 113.411 579.311C121.721 570.516 131.987 564.652 143.23 562.209C174.516 555.368 204.824 575.402 211.667 606.185C214.112 617.423 213.134 629.15 208.734 640.388C201.891 657.979 186.248 670.683 167.672 674.592ZM543.1 563.186C485.906 620.355 409.647 651.627 328.5 651.627H328.011C296.237 651.627 265.44 646.74 235.621 636.968C235.621 636.479 235.621 636.479 235.621 635.991C236.109 633.548 236.598 631.105 237.087 628.662C237.087 628.173 237.087 627.196 237.576 626.707C238.065 624.264 238.065 621.332 238.065 618.889V618.4C238.065 615.957 238.065 613.514 237.576 611.071C237.576 610.583 237.576 609.605 237.576 609.117C237.087 606.185 237.087 603.742 236.109 601.299C226.333 557.323 182.826 528.983 138.342 538.267C135.408 538.755 132.964 539.733 130.52 540.71C130.031 540.71 129.054 541.198 128.565 541.198C126.121 542.176 123.676 543.153 121.232 544.13C121.232 544.13 121.232 544.13 120.743 544.13C118.299 545.107 115.855 546.573 113.411 548.039C112.922 548.528 112.433 548.528 111.455 549.016C109.5 550.482 107.056 551.948 105.1 553.414C105.1 553.414 104.612 553.414 104.612 553.903C52.7946 497.223 24.442 424.418 24.442 347.216C24.9308 179.62 161.317 43.7831 328.989 43.7831C361.252 43.7831 392.538 48.6693 422.846 58.9304C418.935 72.1231 418.446 86.2931 421.379 99.9745C425.779 121.474 438.489 139.553 457.065 151.768C475.641 163.495 497.638 167.404 518.658 163.006C532.346 160.075 544.567 154.211 554.833 145.416C605.183 201.607 633.047 273.435 632.558 349.171C632.558 429.304 600.783 505.529 543.1 563.186Z" fill="#EF465C"/>
</svg>
